<svg xmlns="http://www.w3.org/2000/svg" width="512" height="512" viewBox="0 0 100 100">
  <defs>
    <radialGradient id="bg" cx="0.5" cy="0.28" r="0.9"><stop offset="0" stop-color="#23262b"></stop><stop offset="1" stop-color="#0a0c0f"></stop></radialGradient>
    <clipPath id="sq"><path d="M50 0 C11 0 0 11 0 50 C0 89 11 100 50 100 C89 100 100 89 100 50 C100 11 89 0 50 0 Z"></path></clipPath>
    <g id="ear">
      <path d="M14.5 34.5 C13 26.5 15 17.5 20.5 13 C27 16.5 32.5 23 35.5 29.5 Z" fill="#b6bdc7" stroke="#b6bdc7" stroke-width="5.5" stroke-linejoin="round"></path>
      <path d="M20 29 C19.6 24 20.5 19 22.5 15.5 C26.5 18.5 30.3 22.5 32.5 26 Z" fill="#171a1f" stroke="#171a1f" stroke-width="3" stroke-linejoin="round"></path>
    </g>
  </defs>
  <g clip-path="url(#sq)">
    <path d="M50 0 C11 0 0 11 0 50 C0 89 11 100 50 100 C89 100 100 89 100 50 C100 11 89 0 50 0 Z" fill="url(#bg)"></path>
    <use href="#ear"></use>
    <use href="#ear" transform="matrix(-1 0 0 1 100 0)"></use>
    <path d="M50 26 C39.5 26 30.5 29 24.5 34 C23.5 34.8 22.7 35.8 22 37 L14 50.5 Q11.8 54.3 14.6 57.4 L41 80.5 C44.5 84.8 55.5 84.8 59 80.5 L85.4 57.4 Q88.2 54.3 86 50.5 L78 37 C77.3 35.8 76.5 34.8 75.5 34 C69.5 29 60.5 26 50 26 Z" fill="#b6bdc7" stroke="#b6bdc7" stroke-width="2" stroke-linejoin="round"></path>
    <path d="M50 27.5 C46.5 34 45.5 43 46.8 60 L53.2 60 C54.5 43 53.5 34 50 27.5 Z" fill="#e3e8ed" opacity="0.85"></path>
    <g fill="#0f1216">
      <ellipse cx="32.5" cy="57" rx="13.5" ry="9.5" transform="rotate(-10 32.5 57)"></ellipse>
      <ellipse cx="67.5" cy="57" rx="13.5" ry="9.5" transform="rotate(10 67.5 57)"></ellipse>
      <rect x="43" y="51" width="14" height="6.5" rx="3.25"></rect>
    </g>
    <circle cx="32.5" cy="57" r="5.4" fill="#ffffff"></circle>
    <circle cx="33" cy="57.8" r="2.7" fill="#0f1216"></circle>
    <circle cx="67.5" cy="57" r="5.4" fill="#ffffff"></circle>
    <circle cx="67" cy="57.8" r="2.7" fill="#0f1216"></circle>
    <path d="M37.5 67 C42 63.5 58 63.5 62.5 67 C60.5 76 55 81.5 50 82.5 C45 81.5 39.5 76 37.5 67 Z" fill="#f3f5f7"></path>
    <ellipse cx="50" cy="70.5" rx="6.8" ry="6.2" fill="#0f1216"></ellipse>
    <g fill="#8e97a2">
      <circle cx="41.5" cy="71.5" r="0.9"></circle>
      <circle cx="40" cy="74.5" r="0.9"></circle>
      <circle cx="43" cy="77" r="0.9"></circle>
      <circle cx="58.5" cy="71.5" r="0.9"></circle>
      <circle cx="60" cy="74.5" r="0.9"></circle>
      <circle cx="57" cy="77" r="0.9"></circle>
    </g>
  </g>
</svg>